<?xml version="1.0" encoding="UTF-8" standalone="no"?><!-- Generator: Gravit.io --><svg xmlns="http://www.w3.org/2000/svg" xmlns:xlink="http://www.w3.org/1999/xlink" style="isolation:isolate" viewBox="0 0 1000 500" width="1000pt" height="500pt"><defs><clipPath id="_clipPath_FeFpB9qr9fUIo21XOMx3isNFbWU3v13F"><rect width="1000" height="500"/></clipPath></defs><g clip-path="url(#_clipPath_FeFpB9qr9fUIo21XOMx3isNFbWU3v13F)"><g><g><circle vector-effect="non-scaling-stroke" cx="499.9954612710259" cy="133.50898214464019" r="132.22225248041536" fill="rgb(0,82,255)"/><path d=" M 545.601 142.133 C 541.561 163.537 522.78 179.722 500.204 179.722 C 474.678 179.722 453.991 159.035 453.991 133.509 C 453.991 107.983 474.678 87.296 500.204 87.296 C 522.78 87.296 541.561 103.49 545.601 124.885 L 592.232 124.885 C 587.883 77.882 548.342 41.082 500.204 41.082 C 449.153 41.082 407.778 82.466 407.778 133.509 C 407.778 184.561 449.162 225.936 500.204 225.936 C 548.342 225.936 587.883 189.136 592.232 142.133 L 545.601 142.133 Z " fill="rgb(255,255,255)"/></g><path d=" M 201.828 369.95 C 165.5 369.95 137.115 397.527 137.115 434.445 C 137.115 471.372 164.783 498.704 201.828 498.704 C 238.873 498.704 267.023 470.891 267.023 434.209 C 267.013 397.763 239.354 369.95 201.828 369.95 Z  M 202.064 472.098 C 181.377 472.098 166.217 456.031 166.217 434.454 C 166.217 412.632 181.132 396.574 201.819 396.574 C 222.752 396.574 237.902 412.877 237.902 434.454 C 237.911 456.031 222.752 472.098 202.064 472.098 Z  M 274.956 398.008 L 293.002 398.008 L 293.002 496.317 L 321.869 496.317 L 321.869 372.355 L 274.956 372.355 L 274.956 398.008 Z  M 64.468 396.565 C 79.627 396.565 91.655 405.914 96.221 419.821 L 126.776 419.821 C 121.239 390.092 96.702 369.95 64.713 369.95 C 28.385 369.95 0 397.527 0 434.445 C 0 471.372 27.668 498.704 64.713 498.704 C 95.985 498.704 121.003 478.561 126.54 448.588 L 96.23 448.588 C 91.9 462.494 79.873 472.089 64.713 472.089 C 43.781 472.089 29.111 456.022 29.111 434.445 C 29.102 412.632 43.535 396.565 64.468 396.565 Z  M 823.434 422.463 L 802.266 419.349 C 792.163 417.915 784.946 414.556 784.946 406.641 C 784.946 398.008 794.332 393.696 807.077 393.696 C 821.029 393.696 829.934 399.687 831.858 409.518 L 859.762 409.518 C 856.631 384.582 837.386 369.959 807.803 369.959 C 777.248 369.959 757.042 385.545 757.042 407.603 C 757.042 428.699 770.277 440.935 796.974 444.766 L 818.142 447.88 C 828.491 449.314 834.264 453.399 834.264 461.069 C 834.264 470.9 824.161 474.976 810.209 474.976 C 793.125 474.976 783.503 468.022 782.059 457.474 L 753.674 457.474 C 756.325 481.693 775.324 498.713 809.963 498.713 C 841.48 498.713 862.404 484.325 862.404 459.626 C 862.404 437.568 847.245 426.057 823.434 422.463 Z  M 307.426 321.276 C 296.842 321.276 288.899 328.947 288.899 339.495 C 288.899 350.043 296.842 357.722 307.426 357.722 C 318.011 357.722 325.953 350.052 325.953 339.504 C 325.953 328.956 318.02 321.276 307.426 321.276 Z  M 731.053 414.792 C 731.053 387.941 714.695 369.959 680.056 369.959 C 647.341 369.959 629.059 386.507 625.446 411.924 L 654.076 411.924 C 655.52 402.093 663.217 393.941 679.575 393.941 C 694.253 393.941 701.47 400.413 701.47 408.329 C 701.47 418.641 688.235 421.273 671.877 422.953 C 649.746 425.349 622.323 433.02 622.323 461.795 C 622.323 484.099 638.926 498.477 665.387 498.477 C 686.074 498.477 699.064 489.845 705.564 476.174 C 706.526 488.401 715.667 496.317 728.421 496.317 L 745.259 496.317 L 745.259 470.664 L 731.062 470.664 L 731.062 414.792 L 731.053 414.792 Z  M 702.668 445.964 C 702.668 462.512 688.235 474.74 670.67 474.74 C 659.84 474.74 650.699 470.183 650.699 460.597 C 650.699 448.37 665.378 445.011 678.849 443.577 C 691.838 442.379 699.055 439.501 702.668 433.982 L 702.668 445.964 Z  M 549.431 369.95 C 533.31 369.95 519.839 376.667 510.217 387.932 L 510.217 320.078 L 481.35 320.078 L 481.35 496.317 L 509.736 496.317 L 509.736 480.014 C 519.358 491.76 533.074 498.713 549.431 498.713 C 584.071 498.713 610.296 471.381 610.296 434.454 C 610.296 397.527 583.59 369.95 549.431 369.95 Z  M 545.101 472.098 C 524.414 472.098 509.254 456.031 509.254 434.454 C 509.254 412.877 524.65 396.574 545.337 396.574 C 566.27 396.574 580.939 412.641 580.939 434.454 C 580.948 456.031 565.789 472.098 545.101 472.098 Z  M 412.316 369.95 C 393.553 369.95 381.28 377.62 374.064 388.413 L 374.064 372.346 L 345.434 372.346 L 345.434 496.308 L 374.3 496.308 L 374.3 428.935 C 374.3 409.99 386.328 396.565 404.128 396.565 C 420.731 396.565 431.07 408.311 431.07 425.34 L 431.07 496.317 L 459.937 496.317 L 459.937 423.189 C 459.946 392.017 443.824 369.95 412.316 369.95 Z  M 1000 430.378 C 1000 394.894 974.02 369.959 939.136 369.959 C 902.091 369.959 874.904 397.772 874.904 434.454 C 874.904 473.06 904.015 498.713 939.617 498.713 C 969.69 498.713 993.265 480.967 999.274 455.795 L 969.2 455.795 C 964.87 466.824 954.286 473.06 940.089 473.06 C 921.562 473.06 907.61 461.55 904.487 441.407 L 999.991 441.407 L 999.991 430.378 L 1000 430.378 Z  M 906.184 420.783 C 910.76 403.518 923.749 395.13 938.664 395.13 C 955.021 395.13 967.53 404.48 970.417 420.783 L 906.184 420.783 Z " fill="rgb(0,82,255)"/></g></g></svg>